<?xml version="1.0" standalone="no"?>
<!DOCTYPE svg PUBLIC "-//W3C//DTD SVG 20010904//EN"
 "http://www.w3.org/TR/2001/REC-SVG-20010904/DTD/svg10.dtd">
<svg version="1.0" xmlns="http://www.w3.org/2000/svg"
 width="512.000000pt" height="512.000000pt" viewBox="0 0 512.000000 512.000000"
 preserveAspectRatio="xMidYMid meet">

<g transform="translate(0.000000,512.000000) scale(0.100000,-0.100000)"
fill="#000000" stroke="none">
<path d="M1200 3307 c-48 -15 -113 -83 -128 -133 -17 -59 -17 -1179 0 -1238
16 -53 81 -118 134 -134 60 -18 2678 -18 2738 0 53 16 118 81 134 134 17 59
17 1179 0 1238 -16 53 -81 118 -134 134 -56 16 -2691 16 -2744 -1z m2758 -38
c26 -13 54 -38 70 -62 l27 -41 0 -611 0 -611 -27 -41 c-16 -24 -44 -49 -70
-62 l-44 -21 -1339 0 -1339 0 -44 21 c-26 13 -54 38 -70 62 l-27 41 0 611 0
611 27 41 c15 23 44 49 70 62 l43 21 1339 0 1340 0 44 -21z"/>
</g>
</svg>
