<?xml version="1.0" standalone="no"?>
<!DOCTYPE svg PUBLIC "-//W3C//DTD SVG 20010904//EN"
 "http://www.w3.org/TR/2001/REC-SVG-20010904/DTD/svg10.dtd">
<svg version="1.0" xmlns="http://www.w3.org/2000/svg"
 width="512.000000pt" height="512.000000pt" viewBox="0 0 512.000000 512.000000"
 preserveAspectRatio="xMidYMid meet">

<g transform="translate(0.000000,512.000000) scale(0.100000,-0.100000)"
fill="#000000" stroke="none">
<path d="M2425 3854 c-187 -28 -320 -70 -466 -146 -445 -231 -720 -708 -696
-1208 17 -341 145 -629 386 -871 351 -350 885 -470 1351 -304 741 265 1082
1118 727 1821 -176 348 -504 600 -892 685 -87 19 -340 33 -410 23z m405 -53
c117 -26 199 -56 304 -108 250 -124 443 -317 570 -570 95 -190 131 -343 131
-568 0 -225 -36 -378 -131 -568 -127 -253 -319 -445 -570 -570 -194 -97 -345
-132 -569 -132 -224 0 -375 35 -569 132 -354 176 -595 492 -682 894 -26 117
-26 371 0 488 74 345 263 627 547 819 147 99 349 173 564 206 69 10 322 -4
405 -23z"/>
</g>
</svg>
