<?xml version="1.0" standalone="no"?>
<!DOCTYPE svg PUBLIC "-//W3C//DTD SVG 20010904//EN"
 "http://www.w3.org/TR/2001/REC-SVG-20010904/DTD/svg10.dtd">
<svg version="1.0" xmlns="http://www.w3.org/2000/svg"
 width="512.000000pt" height="512.000000pt" viewBox="0 0 512.000000 512.000000"
 preserveAspectRatio="xMidYMid meet">

<g transform="translate(0.000000,512.000000) scale(0.100000,-0.100000)"
fill="#000000" stroke="none">
<path d="M2383 3767 c-10 -13 -59 -103 -108 -200 l-90 -177 0 -87 c0 -49 3
-103 8 -122 7 -34 6 -34 -65 36 -40 38 -92 80 -116 92 -49 25 -353 111 -393
111 -15 0 -30 -4 -33 -9 -3 -5 6 -46 19 -92 14 -46 35 -120 46 -164 28 -109
62 -167 139 -236 l65 -59 -41 0 c-54 0 -114 -22 -172 -62 -26 -17 -92 -62
-147 -99 -102 -67 -135 -94 -135 -108 0 -12 155 -162 226 -219 77 -61 164 -95
233 -91 28 2 51 3 51 2 0 -1 -29 -22 -65 -48 -36 -26 -76 -63 -90 -83 -30 -47
-149 -398 -139 -413 10 -16 334 -3 411 17 32 8 83 32 114 54 l56 39 -5 -68
c-5 -77 14 -175 58 -290 15 -42 34 -94 42 -116 8 -22 21 -41 30 -43 11 -2 69
49 155 135 138 139 203 229 203 283 0 18 10 8 39 -38 44 -67 62 -79 315 -211
121 -64 140 -71 153 -59 15 16 73 342 73 412 0 23 -12 68 -25 101 -14 33 -25
60 -25 61 0 0 27 -13 60 -29 55 -27 68 -30 159 -29 101 1 292 25 337 42 13 5
24 14 24 20 0 21 -194 308 -243 359 -32 33 -78 66 -119 86 l-67 32 42 13 c102
30 119 46 273 245 107 139 121 162 102 181 -24 24 -195 94 -297 121 -109 29
-202 28 -260 -2 -33 -16 -34 -16 -26 1 33 78 34 91 29 274 -6 215 -8 230 -32
230 -10 0 -63 -17 -118 -39 -54 -21 -125 -46 -157 -55 -43 -12 -71 -29 -107
-64 l-49 -47 -7 40 c-3 22 -12 51 -19 65 -32 61 -261 330 -281 330 -7 0 -21
-11 -31 -23z m117 -108 c107 -122 160 -193 176 -236 15 -42 19 -299 5 -321 -6
-10 -17 -1 -42 32 -44 57 -64 70 -88 56 -30 -15 -119 -140 -139 -193 l-18 -48
-33 51 c-18 27 -55 75 -83 105 -36 40 -53 68 -59 98 -14 72 -9 140 14 203 31
86 169 345 182 341 5 -2 44 -42 85 -88z m653 -313 c7 -210 3 -233 -57 -324
l-41 -63 -3 50 c-3 44 -6 52 -26 57 -28 7 -176 -37 -240 -71 l-45 -24 -6 33
c-4 18 -2 51 4 72 6 22 11 90 11 153 l0 114 40 38 c27 25 61 45 102 58 35 11
104 35 153 55 50 19 93 35 96 36 3 0 9 -83 12 -184z m-1361 3 c214 -57 242
-74 393 -237 69 -74 124 -136 122 -138 -1 -2 -31 4 -66 13 -60 15 -63 15 -82
-3 -17 -18 -18 -27 -9 -124 9 -111 7 -120 -36 -120 -38 0 -119 49 -237 145
-133 109 -163 151 -197 279 -12 45 -30 110 -41 145 -22 72 -23 81 -10 81 6 0
79 -18 163 -41z m838 -304 c28 -38 53 -81 57 -94 12 -49 -4 -185 -30 -246
l-25 -60 -4 50 -4 50 -2 -58 c-3 -77 -19 -71 -48 17 -13 37 -44 96 -69 131
-50 70 -56 105 -29 158 25 48 85 128 94 125 5 -2 31 -34 60 -73z m70 -18 c0
-16 -3 -17 -15 -7 -8 7 -15 16 -15 20 0 3 7 7 15 7 8 0 15 -9 15 -20z m761 -8
c114 -34 249 -92 249 -108 0 -5 -15 -29 -33 -53 -18 -24 -70 -91 -115 -150
-46 -59 -95 -116 -110 -126 -31 -22 -189 -78 -244 -86 -21 -3 -55 -9 -75 -12
l-37 -6 77 82 c57 59 77 87 75 103 -3 25 -62 60 -171 104 -45 18 -66 31 -63
40 3 7 41 59 85 116 60 77 89 107 113 114 62 20 141 14 249 -18z m-441 11 c0
-5 -2 -10 -4 -10 -3 0 -8 5 -11 10 -3 6 -1 10 4 10 6 0 11 -4 11 -10z m-36
-72 c-10 -74 -33 -144 -51 -160 -10 -8 -45 -25 -78 -37 -33 -12 -76 -33 -96
-46 l-36 -23 13 56 c8 32 14 74 14 94 0 57 39 93 135 128 107 39 106 39 99
-12z m-794 -3 c-7 -9 -15 -13 -17 -11 -7 7 7 26 19 26 6 0 6 -6 -2 -15z m186
-32 c-1 -1 -12 0 -24 4 -18 4 -20 8 -11 19 10 12 14 11 24 -3 8 -10 12 -19 11
-20z m368 9 c2 -4 -2 -16 -10 -27 -13 -18 -14 -18 -14 8 0 25 13 36 24 19z
m-434 -27 c40 -10 76 -27 94 -43 69 -65 143 -219 117 -245 -6 -6 -37 9 -88 42
-43 29 -103 59 -133 67 -30 9 -61 22 -69 30 -9 8 -16 43 -19 95 -4 76 -3 81
14 76 11 -3 48 -13 84 -22z m118 -5 c-2 -6 -8 -6 -18 0 -13 9 -13 11 0 20 15
10 25 0 18 -20z m591 -31 c-25 -35 -29 -36 -22 -6 9 42 12 47 28 41 13 -5 12
-10 -6 -35z m-1125 -78 c28 -22 71 -51 95 -64 l44 -25 -52 -26 c-75 -38 -71
-55 38 -158 l89 -85 -62 -22 c-33 -12 -91 -40 -129 -63 -61 -37 -72 -40 -120
-36 -86 7 -151 45 -279 163 -65 60 -118 112 -118 117 0 5 41 35 92 69 50 33
113 75 138 94 65 48 128 75 174 75 30 0 51 -9 90 -39z m1079 -15 c4 -9 -3 -16
-19 -19 -24 -4 -24 -3 -8 14 20 23 20 23 27 5z m-763 -41 c10 -13 9 -15 -8
-15 -15 0 -20 5 -16 15 4 8 7 15 9 15 1 0 8 -7 15 -15z m878 -39 c40 -18 75
-36 79 -40 12 -12 -129 -145 -167 -158 -48 -16 -213 -16 -232 -1 -8 7 -17 10
-21 7 -3 -3 -8 5 -12 18 -4 13 -16 33 -27 44 l-20 22 69 48 c70 50 175 93 228
94 17 0 63 -15 103 -34z m-980 9 c-2 -1 -14 -8 -28 -15 -22 -12 -24 -11 -13 2
7 8 10 17 7 21 -3 3 4 3 15 0 12 -3 20 -7 19 -8z m153 -29 c26 -8 62 -22 80
-31 52 -27 140 -95 134 -105 -3 -4 -29 -11 -58 -15 -28 -4 -79 -18 -113 -31
-72 -28 -119 -30 -155 -6 -39 26 -139 116 -139 125 0 14 143 77 175 77 16 0
51 -7 76 -14z m420 -60 c-12 -12 -21 -28 -21 -35 0 -11 -3 -11 -15 -1 -14 12
-14 15 0 30 8 9 15 21 15 27 0 6 9 9 21 6 l20 -6 -20 -21z m-107 -5 c3 -5 -1
-11 -9 -14 -9 -4 -12 -1 -8 9 6 16 10 17 17 5z m-49 -41 c-3 -5 -10 -10 -16
-10 -5 0 -9 5 -9 10 0 6 7 10 16 10 8 0 12 -4 9 -10z m85 -60 c0 -33 -3 -60
-6 -60 -3 0 -19 9 -35 21 -48 34 -36 99 18 99 21 0 23 -4 23 -60z m60 0 c0 -4
-9 -18 -20 -31 l-19 -24 -1 49 c0 48 0 49 20 31 11 -10 20 -21 20 -25z m-160
-5 c0 -9 -6 -12 -15 -9 -8 4 -12 10 -9 15 8 14 24 10 24 -6z m223 -46 c-5 -5
-18 -6 -30 -3 -19 5 -21 9 -12 26 10 19 11 19 30 2 11 -10 16 -21 12 -25z
m324 -21 c-10 -15 -13 -15 -40 4 l-30 21 34 11 c28 10 35 9 40 -4 3 -8 1 -23
-4 -32z m-561 17 c12 -31 -97 -153 -196 -219 -52 -34 -59 -36 -137 -36 -46 0
-83 3 -83 6 0 13 73 126 94 146 74 70 306 144 322 103z m54 -10 c10 -12 10
-15 -4 -15 -9 0 -16 7 -16 15 0 8 2 15 4 15 2 0 9 -7 16 -15z m838 -14 c31
-16 76 -49 99 -73 50 -52 231 -323 222 -333 -10 -9 -234 -36 -314 -37 -132 -2
-178 21 -244 117 l-49 73 36 9 c27 6 38 15 40 30 3 21 -44 124 -79 174 l-19
26 90 12 c49 6 100 16 112 21 35 14 44 12 106 -19z m-1170 9 l37 0 -45 -29
c-39 -24 -46 -26 -56 -13 -15 21 -6 55 13 48 8 -3 31 -6 51 -6z m533 -67 c59
-66 119 -181 119 -231 0 -31 -27 -152 -35 -160 -2 -2 -35 18 -74 45 -56 38
-75 57 -90 93 -25 61 -41 139 -41 208 0 49 3 59 28 79 15 12 30 22 33 23 4 0
31 -26 60 -57z m259 32 c27 -24 100 -147 93 -157 -6 -11 -147 -10 -177 2 -14
5 -33 24 -42 42 -9 18 -33 56 -54 83 l-37 50 98 0 c83 0 100 -3 119 -20z
m-440 -77 c0 -33 5 -90 12 -125 10 -58 10 -68 -7 -99 -16 -30 -128 -114 -153
-114 -10 0 -62 158 -62 187 0 13 16 34 38 52 21 16 65 61 97 100 32 39 62 68
67 65 4 -3 8 -33 8 -66z m-521 -50 c-55 -92 -61 -124 -25 -138 30 -11 212 -5
248 9 26 10 27 8 38 -40 l12 -49 -52 -61 c-57 -65 -177 -167 -225 -191 -53
-27 -116 -37 -277 -44 -112 -5 -158 -4 -158 4 0 20 110 336 125 359 24 36 65
70 155 130 83 55 174 103 197 103 6 0 -11 -37 -38 -82z m858 -76 c-9 -12 -12
-11 -18 5 -12 30 -10 34 10 21 16 -10 17 -15 8 -26z m-574 -3 c-4 -13 -9 -17
-15 -11 -11 11 -3 32 12 32 4 0 6 -9 3 -21z m737 -5 c0 -14 -3 -15 -17 -3 -10
7 -20 15 -22 16 -2 2 5 3 17 3 14 0 22 -6 22 -16z m-1026 -20 c3 -8 2 -12 -4
-9 -6 3 -10 10 -10 16 0 14 7 11 14 -7z m982 -2 c5 -4 31 -36 56 -72 56 -80
108 -197 108 -243 0 -43 -48 -355 -58 -378 -6 -14 -27 -5 -132 51 -299 162
-277 142 -356 326 -57 134 -62 159 -39 185 18 19 19 19 49 -9 45 -42 180 -132
198 -132 9 0 20 6 26 13 15 17 52 181 52 228 l0 39 43 0 c23 0 47 -4 53 -8z
m-388 -51 c9 -25 8 -28 -7 -24 -13 3 -17 12 -13 29 6 31 8 30 20 -5z m-268
-93 c0 -4 -6 -5 -14 -2 -8 3 -12 12 -9 21 5 12 7 12 14 1 5 -7 9 -16 9 -20z
m190 -13 c0 -9 -6 -12 -15 -9 -8 4 -12 10 -9 15 8 14 24 10 24 -6z m-164 -99
c10 -4 38 7 73 28 30 19 56 34 57 33 1 -1 21 -47 44 -101 50 -118 49 -143 -7
-225 -35 -52 -257 -281 -272 -281 -3 0 -19 35 -34 78 -50 136 -77 245 -77 309
l0 62 82 85 83 86 17 -34 c9 -18 25 -36 34 -40z m464 24 c0 -5 -5 -10 -11 -10
-5 0 -7 5 -4 10 3 6 8 10 11 10 2 0 4 -4 4 -10z"/>
</g>
</svg>
